<?xml version="1.0" encoding="UTF-8" standalone="no"?>
<svg
   xmlns:dc="http://purl.org/dc/elements/1.1/"
   xmlns:cc="http://creativecommons.org/ns#"
   xmlns:rdf="http://www.w3.org/1999/02/22-rdf-syntax-ns#"
   xmlns:svg="http://www.w3.org/2000/svg"
   xmlns="http://www.w3.org/2000/svg"
   xmlns:xlink="http://www.w3.org/1999/xlink"
   xmlns:sodipodi="http://sodipodi.sourceforge.net/DTD/sodipodi-0.dtd"
   xmlns:inkscape="http://www.inkscape.org/namespaces/inkscape"
   width="210mm"
   height="297mm"
   viewBox="0 0 210 297"
   version="1.1"
   id="svg8"
   inkscape:version="1.0beta2 (2b71d25, 2019-12-03)"
   sodipodi:docname="nuru.svg">
  <defs
     id="defs2" />
  <sodipodi:namedview
     id="base"
     pagecolor="#ffffff"
     bordercolor="#666666"
     borderopacity="1.0"
     inkscape:pageopacity="0.0"
     inkscape:pageshadow="2"
     inkscape:zoom="1.9380612"
     inkscape:cx="393.66359"
     inkscape:cy="425.89386"
     inkscape:document-units="mm"
     inkscape:current-layer="layer3"
     inkscape:document-rotation="0"
     showgrid="false"
     inkscape:window-width="1401"
     inkscape:window-height="855"
     inkscape:window-x="36"
     inkscape:window-y="1201"
     inkscape:window-maximized="0" />
  <metadata
     id="metadata5">
    <rdf:RDF>
      <cc:Work
         rdf:about="">
        <dc:format>image/svg+xml</dc:format>
        <dc:type
           rdf:resource="http://purl.org/dc/dcmitype/StillImage" />
        <dc:title />
      </cc:Work>
    </rdf:RDF>
  </metadata>
  <g
     sodipodi:insensitive="true"
     inkscape:label="image"
     inkscape:groupmode="layer"
     id="layer1">
    <image
       sodipodi:absref="/Users/andreassteiner/git/nuru/www/IMG_2221.JPG"
       xlink:href="../www/IMG_2221.JPG"
       y="-158.08228"
       x="-164.57828"
       width="121.39577"
       height="91.046822"
       preserveAspectRatio="none"
       id="image20"
       transform="scale(-1)" />
  </g>
  <g
     sodipodi:insensitive="true"
     inkscape:label="outline"
     id="layer2"
     inkscape:groupmode="layer">
    <path
       style="fill:none;stroke:#00ff00;stroke-width:0.264583px;stroke-linecap:butt;stroke-linejoin:miter;stroke-opacity:1"
       d="m 94.745919,116.38173 c 0,0 -3.00343,-7.50859 -4.778182,-8.05466 -1.774756,-0.54609 -5.324266,0 -6.552944,1.77475 -1.228674,1.77476 -2.184312,2.7304 -3.13995,2.32083 -0.955635,-0.40955 1.092158,-9.8294 2.866914,-11.74068 1.774753,-1.911275 3.41299,-1.911275 3.41299,-1.911275 0,0 5.870342,0.955637 8.054652,2.866915 2.18432,1.91127 5.597301,7.6451 6.825981,8.3277 1.22868,0.68259 3.27647,1.22866 4.36863,0.54607 1.09215,-0.68259 3.13995,-0.95563 3.13995,-2.18431 0,-1.22868 3.68603,-9.146816 5.5973,-10.785053 1.91127,-1.638234 9.41985,-4.368625 16.24583,-4.095586 6.82598,0.273037 17.61103,0.819116 19.65882,-2.320835 2.0478,-3.139949 1.50172,-7.099018 0.13652,-8.191173 -1.36519,-1.092158 -3.1694,-1.241462 -0.5799,-3.669118 2.18432,-2.047795 10.2728,3.805637 10.2728,7.491667 0,3.686026 -4.91471,10.375486 -7.50858,11.467644 -2.59388,1.092157 -24.57353,4.505154 -26.75784,5.597304 -2.18432,1.09216 -7.23554,5.32427 -7.09902,6.00687 0.13652,0.68259 2.45735,2.86691 4.50514,2.59386 2.0478,-0.27303 9.41986,-2.59386 11.05809,-2.59386 1.63824,0 7.91814,2.32083 10.23897,4.9147 2.32083,2.59387 3.54951,6.55294 2.86691,7.23554 -0.6826,0.68259 -3.54951,0.95564 -4.36862,-0.13652 -0.81912,-1.09216 -3.68603,-4.91471 -6.14339,-4.23211 -2.45735,0.6826 -6.82598,4.77819 -8.19117,5.5973 -1.3652,0.81912 -4.91471,1.50172 -5.05123,2.32084 -0.13652,0.81912 6.68946,6.00686 8.60074,6.68946 1.91127,0.6826 11.05808,6.14338 12.42328,6.14338 1.3652,0 7.91814,3.13995 6.41642,5.46078 -1.50171,2.32084 -15.29019,-0.27303 -19.24926,-1.36519 -3.95907,-1.09216 -15.15368,-6.9625 -15.15368,-6.9625 0,0 -1.22867,7.91814 -4.36862,10.64853 -3.13995,2.73039 -7.91814,5.18774 -9.0103,5.18774 -1.09215,0 -4.368621,-4.64166 -4.778181,-7.50858 -0.40956,-2.86691 -2.45735,-8.19117 -4.09559,-8.87377 -1.63823,-0.6826 -30.03431,7.23554 -35.222054,1.63824 -5.187746,-5.59731 -8.191177,-20.34142 -7.645098,-27.1674 0.546079,-6.82598 0.273039,-14.607604 -2.184313,-17.064956 -2.457352,-2.457352 -7.918137,-5.597302 -7.781618,-6.962499 0.13652,-1.365197 7.781618,-3.41299 11.331128,-0.546079 3.54951,2.866911 12.286763,14.607597 12.832842,20.068384 0.546079,5.46078 2.866912,14.74412 5.051225,16.10931 2.184315,1.3652 12.969361,-0.40956 15.290196,-2.18431 2.320833,-1.77476 3.68603,-3.00344 5.460782,-2.86691 1.77476,0.13652 3.00343,0.40956 3.00343,0.40956 z"
       id="path16"
       inkscape:connector-curvature="0"
       sodipodi:nodetypes="cscscccccsssccsscccsssscccscscscssssssssssccsc" />
  </g>
  <g
     inkscape:label="annotations"
     id="layer3"
     inkscape:groupmode="layer">
    <text
       id="text37"
       y="127.01519"
       x="89.420334"
       style="font-style:normal;font-variant:normal;font-weight:normal;font-stretch:normal;font-size:4.23333px;line-height:1.25;font-family:monospace;-inkscape-font-specification:monospace;fill:#ff0000;fill-opacity:1;stroke:none;stroke-width:0.264583"
       xml:space="preserve"><tspan
         style="font-style:normal;font-variant:normal;font-weight:normal;font-stretch:normal;font-family:monospace;-inkscape-font-specification:monospace;fill:#ff0000;stroke-width:0.264583"
         y="127.01519"
         x="89.420334"
         id="tspan35"
         sodipodi:role="line">arm0</tspan></text>
    <text
       xml:space="preserve"
       style="font-style:normal;font-variant:normal;font-weight:normal;font-stretch:normal;font-size:4.23333px;line-height:1.25;font-family:monospace;-inkscape-font-specification:monospace;fill:#ff0000;fill-opacity:1;stroke:none;stroke-width:0.264583"
       x="93.106361"
       y="113.97697"
       id="text41"><tspan
         sodipodi:role="line"
         id="tspan39"
         x="93.106361"
         y="113.97697"
         style="font-style:normal;font-variant:normal;font-weight:normal;font-stretch:normal;font-family:monospace;-inkscape-font-specification:monospace;fill:#ff0000;stroke-width:0.264583">arm1</tspan></text>
    <text
       xml:space="preserve"
       style="font-style:normal;font-variant:normal;font-weight:normal;font-stretch:normal;font-size:4.23333px;line-height:1.25;font-family:monospace;-inkscape-font-specification:monospace;fill:#ff0000;fill-opacity:1;stroke:none;stroke-width:0.264583"
       x="108.53308"
       y="111.86151"
       id="text45"><tspan
         sodipodi:role="line"
         id="tspan43"
         x="108.53308"
         y="111.86151"
         style="font-style:normal;font-variant:normal;font-weight:normal;font-stretch:normal;font-family:monospace;-inkscape-font-specification:monospace;fill:#ff0000;stroke-width:0.264583">arm2</tspan></text>
    <text
       id="text49"
       y="120.8718"
       x="115.76862"
       style="font-style:normal;font-variant:normal;font-weight:normal;font-stretch:normal;font-size:4.23333px;line-height:1.25;font-family:monospace;-inkscape-font-specification:monospace;fill:#ff0000;fill-opacity:1;stroke:none;stroke-width:0.264583"
       xml:space="preserve"><tspan
         style="font-style:normal;font-variant:normal;font-weight:normal;font-stretch:normal;font-family:monospace;-inkscape-font-specification:monospace;fill:#ff0000;stroke-width:0.264583"
         y="120.8718"
         x="115.76862"
         id="tspan47"
         sodipodi:role="line">arm3</tspan></text>
    <text
       xml:space="preserve"
       style="font-style:normal;font-variant:normal;font-weight:normal;font-stretch:normal;font-size:4.23333px;line-height:1.25;font-family:monospace;-inkscape-font-specification:monospace;fill:#ff0000;fill-opacity:1;stroke:none;stroke-width:0.264583"
       x="115.22254"
       y="131.92989"
       id="text53"><tspan
         sodipodi:role="line"
         id="tspan51"
         x="115.22254"
         y="131.92989"
         style="font-style:normal;font-variant:normal;font-weight:normal;font-stretch:normal;font-family:monospace;-inkscape-font-specification:monospace;fill:#ff0000;stroke-width:0.264583">arm4</tspan></text>
    <text
       id="text57"
       y="138.07327"
       x="102.52622"
       style="font-style:normal;font-variant:normal;font-weight:normal;font-stretch:normal;font-size:4.23333px;line-height:1.25;font-family:monospace;-inkscape-font-specification:monospace;fill:#ff0000;fill-opacity:1;stroke:none;stroke-width:0.264583"
       xml:space="preserve"><tspan
         style="font-style:normal;font-variant:normal;font-weight:normal;font-stretch:normal;font-family:monospace;-inkscape-font-specification:monospace;fill:#ff0000;stroke-width:0.264583"
         y="138.07327"
         x="102.52622"
         id="tspan55"
         sodipodi:role="line">arm5</tspan></text>
  </g>
</svg>
