# Blender v2.80 (sub 74) OBJ File: 'kinect_lowres.blend'
# www.blender.org
mtllib kinect_lowres.mtl
o lowres_Cube_Cube.003
v -0.111465 0.115130 0.047886
v -0.090096 0.132705 0.054652
v -0.091339 0.136366 -0.001029
v -0.109520 0.112461 -0.005791
v 0.053046 0.126663 -0.023894
v 0.043597 0.142728 -0.016453
v 0.078055 0.127734 0.004374
v 0.081747 0.113821 -0.001339
v 0.085631 0.103955 0.051889
v 0.077060 0.121868 0.050631
v 0.125475 0.115028 0.117604
v 0.129153 0.091478 0.118428
v -0.131284 -0.106600 0.098175
v -0.115444 -0.121833 0.113169
v -0.188932 -0.224359 0.174436
v -0.248341 -0.186342 0.179815
v 0.040006 -0.054389 0.061824
v 0.060752 -0.046536 0.053501
v 0.071885 -0.091801 0.111670
v 0.057801 -0.098402 0.117048
v -0.066448 0.145563 0.049866
v -0.130510 0.165932 0.086477
v -0.084126 0.179593 0.087964
v 0.206666 -0.230518 0.219369
v 0.124226 -0.252288 0.195826
v -0.213866 0.235687 0.209297
v -0.135134 0.256518 0.210487
v 0.192553 0.203511 0.201830
v 0.245685 0.175714 0.220393
v 0.109102 -0.023985 0.115646
v 0.122134 -0.003686 0.117473
v 0.263887 -0.005285 0.243310
v 0.259843 -0.065594 0.241540
v -0.201890 0.034722 0.097374
v -0.192598 -0.001190 0.074261
v -0.289693 -0.000049 0.140700
v -0.286971 0.072020 0.156523
v 0.095549 0.004129 0.061913
v 0.100264 0.021268 0.062027
v 0.076993 -0.016296 -0.014976
v 0.073984 0.027393 -0.020207
v 0.100669 0.039175 -0.008283
v 0.101706 0.014897 0.007201
v -0.140107 0.009651 0.042372
v -0.141513 0.034286 0.046378
v -0.132469 0.033106 -0.020397
v -0.128656 0.003111 -0.017930
v -0.055173 -0.022397 -0.063533
v -0.052228 0.024678 -0.077701
v 0.012038 0.021569 -0.087178
v -0.003386 -0.025277 -0.067407
v 0.073134 0.160938 0.110141
v 0.014087 0.185310 0.115051
v 0.000383 0.248552 0.245678
v 0.110154 0.241925 0.233768
v -0.028949 -0.119736 0.129953
v 0.001239 -0.121554 0.123610
v -0.001532 -0.251400 0.177061
v -0.064020 -0.248990 0.168955
v 0.036374 0.153342 0.052434
v 0.001325 0.155763 0.048204
v -0.039945 -0.063803 0.064929
v -0.012704 -0.063570 0.066571
v -0.034748 0.138935 -0.037911
v -0.042337 0.150744 -0.017898
v 0.007509 0.152107 -0.019591
v 0.004838 0.137763 -0.039134
v -0.067913 0.145485 -0.017401
v -0.081368 0.128602 -0.030690
v -0.096800 -0.054079 0.054258
v -0.063351 -0.062177 0.061221
v -0.059708 -0.118258 0.127003
v -0.120914 -0.251447 0.169795
v -0.098390 0.026232 -0.063833
v -0.094961 -0.004282 -0.055016
v -0.027531 0.187964 0.106144
v -0.054408 0.256475 0.232530
v -0.043727 0.155458 0.043964
v -0.130086 0.061830 -0.018405
v -0.121758 0.090028 -0.008831
v -0.085767 0.107852 -0.046618
v -0.089777 0.069675 -0.062778
v 0.010300 0.076427 -0.078133
v 0.004242 0.122948 -0.052638
v 0.060117 0.108480 -0.027834
v 0.075867 0.074476 -0.032972
v -0.051318 0.067400 -0.079710
v -0.040859 0.117592 -0.056744
v -0.169827 0.112656 0.068299
v -0.188303 0.073425 0.093860
v -0.271942 0.129120 0.163871
v -0.258038 0.178891 0.173491
v 0.135816 0.020073 0.120187
v 0.133992 0.063680 0.117492
v 0.248020 0.127948 0.257187
v 0.256251 0.059386 0.255112
v 0.095618 0.070724 0.063517
v 0.091911 0.086402 0.056585
v 0.092942 0.084727 -0.010214
v 0.100197 0.067665 -0.003111
v -0.137558 0.069666 0.038586
v -0.126105 0.095737 0.038064
v -0.112252 -0.042356 -0.012772
v -0.119862 -0.025865 -0.014143
v -0.068816 -0.041684 -0.048196
v -0.069517 -0.061971 -0.028972
v -0.008231 -0.070863 -0.029030
v -0.005674 -0.057335 -0.039936
v 0.061845 -0.037497 -0.022152
v 0.050102 -0.059019 -0.012997
v -0.043193 -0.068462 -0.030894
v -0.048331 -0.050871 -0.046173
v -0.115496 -0.044928 0.049979
v -0.137189 -0.025850 0.038204
v 0.089782 -0.019037 0.008059
v 0.071399 -0.046444 0.003625
v 0.080381 -0.033728 0.054589
v 0.088067 -0.017963 0.058520
v 0.099936 -0.052467 0.122559
v 0.099782 -0.062410 0.135807
v 0.247995 -0.123464 0.248408
v 0.246745 -0.186329 0.240909
v -0.167357 -0.053366 0.089777
v -0.146699 -0.078547 0.105005
v -0.277486 -0.131543 0.166068
v -0.301965 -0.068621 0.146671
v -0.392774 0.284218 0.241234
v -0.200755 0.380746 0.162702
v 0.300808 0.278856 0.206549
v 0.378115 0.200697 0.198846
v 0.340116 -0.013470 0.287341
v 0.348971 -0.098026 0.279797
v 0.187703 -0.377119 0.207173
v 0.006022 -0.358402 0.184318
v -0.378171 -0.201557 0.182697
v -0.378253 -0.122752 0.183326
v 0.381333 0.163552 0.260128
v 0.359438 0.123271 0.273869
v -0.174299 -0.391898 0.185489
v -0.330721 -0.320489 0.166879
v -0.341981 -0.247066 0.177816
v -0.400393 0.040079 0.246288
v -0.410357 0.111242 0.270921
v -0.398019 0.194229 0.282476
v -0.433300 0.242424 0.291192
v -0.089227 -0.381331 0.189571
v 0.384689 -0.185262 0.298109
v 0.387609 -0.281446 0.269315
v 0.196631 0.317237 0.180101
v 0.067821 0.365128 0.082212
v 0.372033 -0.346978 0.224688
v -0.069824 0.387392 0.132726
v -0.175056 0.450965 0.115834
v -0.281536 0.503877 0.162556
v -0.326728 0.582167 0.223374
v -0.242868 0.592419 0.162375
v -0.436224 0.465991 0.075385
v -0.473555 0.561736 0.101981
v -0.115395 0.468600 0.038109
v -0.149132 0.583081 0.021245
v -0.326185 0.725067 0.265987
v -0.238486 0.811527 0.089532
v -0.411217 0.669573 0.319480
v -0.556585 0.628824 0.195723
v -0.389880 0.898758 0.272838
v -0.394893 0.802190 0.349834
v -0.567344 0.848345 0.442553
v -0.606106 0.913793 0.358569
v -0.480624 0.711377 0.386768
v -0.543046 0.768435 0.462728
v -0.606664 0.647493 0.254891
v -0.647382 0.650028 0.315758
v -0.898831 0.845190 0.479399
v -0.817362 0.790072 0.580366
v -0.968258 0.699219 0.777710
v -1.009632 0.729623 0.731028
v -0.757086 0.629321 0.613393
v -0.970179 0.606332 0.808131
v -0.882572 0.576770 0.466247
v -1.006243 0.562860 0.683317
v -1.134125 0.777507 0.891515
v -1.143847 0.830032 0.783225
v -1.189449 0.698572 0.929524
v -1.255730 0.666514 0.871247
v -1.164562 0.830141 0.901739
v -1.176770 0.918106 0.780371
v -1.265472 0.845716 0.953118
v -1.312171 0.857641 0.893785
v -1.179494 1.007214 0.846573
v -1.171969 1.025368 0.816489
v -1.219341 1.003795 0.879181
v -1.205114 1.067212 0.814068
v -0.680390 0.036017 0.178569
v -0.594234 0.196992 0.363638
v -0.568622 0.229574 0.360578
v -0.590335 0.307322 0.394148
v -0.589274 0.395803 0.235811
v -0.766739 0.149783 0.355898
v -0.741611 0.255321 0.491734
v -0.677352 0.284835 0.489176
v -0.691950 0.365742 0.489643
v -0.717979 0.449225 0.362507
v -0.784790 0.371461 0.547388
v -0.878853 0.421383 0.435937
v -0.863599 0.171091 0.491991
v -0.805917 0.247681 0.599096
v -0.772112 0.322489 0.590297
v -0.864959 0.308861 0.640532
v -0.901679 0.352601 0.583047
v -0.886643 0.144799 0.565228
v -0.861573 0.221414 0.663230
v -0.851623 0.267867 0.659804
v -0.973000 0.168093 0.687918
v -0.977578 0.183678 0.670810
v -1.001551 0.188477 0.641871
v -0.942775 0.086927 0.604023
v -0.935736 0.128315 0.685456
v -0.067590 -0.072170 -0.014681
v -0.040959 -0.078760 -0.015897
v 0.042208 -0.066222 -0.007008
v 0.057135 -0.057221 0.001399
v -0.100281 -0.056641 -0.006592
v -0.011721 -0.079985 -0.013163
v -0.534645 -0.521887 0.164945
v -0.472435 -0.395562 0.221312
v -0.454059 -0.314832 0.231197
v -0.508938 -0.296236 0.276719
v -0.665756 -0.274424 0.268535
v -0.565383 -0.120025 0.134770
v -0.611230 -0.134274 0.043058
v -0.614262 -0.458405 0.359689
v -0.646448 -0.396910 0.380306
v -0.787059 -0.314608 0.333567
v -0.606420 -0.563294 0.269933
v -0.590998 -0.503439 0.322984
v -0.863280 -0.632359 0.497036
v -0.861118 -0.613198 0.531425
v -0.859225 -0.572732 0.561474
v -0.866581 -0.509804 0.556125
v -0.936328 -0.462278 0.504123
v -1.075580 -0.654007 0.628048
v -1.075244 -0.651218 0.630090
v -1.070445 -0.621164 0.642847
v -1.067763 -0.598425 0.644715
v -1.059631 -0.543996 0.631762
v 0.097394 -0.534584 0.154388
v -0.025004 -0.534354 0.177817
v -0.064536 -0.533112 0.166333
v -0.132235 -0.541908 0.147379
v 0.213829 -0.518964 0.052881
v -0.208820 -0.537536 0.113229
v -0.321026 -0.493600 -0.018983
v -0.486634 -0.623310 -0.082602
v 0.145236 -0.718849 0.060989
v -0.020385 -0.697845 0.098024
v -0.105579 -0.703777 0.083613
v -0.170786 -0.706335 0.070606
v 0.300704 -0.677155 -0.069941
v -0.273899 -0.699412 0.003266
v -0.418358 -0.643056 -0.166555
v 0.039490 -0.908019 -0.083547
v -0.094783 -0.893073 -0.065195
v -0.141003 -0.897270 -0.069956
v -0.215812 -0.895480 -0.092453
v 0.159087 -0.905899 -0.186055
v -0.278843 -0.893686 -0.117001
v -0.350989 -0.857801 -0.169050
v 0.029754 -1.134761 -0.256894
v -0.026601 -1.128488 -0.249192
v -0.045999 -1.130250 -0.251190
v -0.077397 -1.129498 -0.260632
v 0.079950 -1.133871 -0.299917
v -0.103852 -1.128746 -0.270935
v -0.134131 -1.113684 -0.292780
v -0.498748 -0.579166 0.014805
v 0.165615 0.446737 0.046282
v 0.236367 0.385437 0.162134
v 0.345706 0.358337 0.178673
v 0.443665 0.343551 0.115114
v 0.447143 0.605049 0.248774
v 0.534374 0.620044 0.154257
v 0.353259 0.667013 0.242124
v 0.329572 0.756110 0.106203
v 0.515616 0.714853 0.352968
v 0.588391 0.718641 0.276692
v 0.449853 0.778879 0.351109
v 0.445311 0.860794 0.245413
v 0.596946 0.732474 0.433732
v 0.663241 0.696503 0.355712
v 0.572582 0.802955 0.448863
v 0.623914 0.895923 0.367983
v 0.724451 0.740015 0.471328
v 0.747207 0.727668 0.444548
v 0.716089 0.764207 0.476522
v 0.733708 0.796118 0.448760
v 0.304394 0.509720 0.190396
v 0.489019 0.481797 0.134685
v 0.248161 0.573024 0.073569
v 0.411812 0.492390 0.208499
v 0.576535 0.208142 0.274036
v 0.511666 -0.049391 0.418356
v 0.524908 -0.141285 0.416106
v 0.558794 0.120245 0.362713
v 0.525990 0.047288 0.393240
v 0.562150 -0.228569 0.400694
v 0.586461 -0.328092 0.380887
v 0.952734 0.008271 0.495216
v 0.813107 -0.097609 0.688657
v 0.772332 -0.156958 0.715202
v 0.875608 -0.014373 0.617224
v 0.840043 -0.050500 0.668406
v 0.790617 -0.271995 0.700958
v 0.943779 -0.372779 0.584364
v 1.026203 0.110381 0.662605
v 0.961321 -0.015171 0.907318
v 0.987552 -0.103971 0.957500
v 0.974650 0.092160 0.781682
v 0.951876 0.056073 0.856703
v 1.087318 -0.171841 0.969777
v 1.210322 -0.178183 0.852494
v 1.070710 0.390409 0.718858
v 1.012069 0.362149 0.993580
v 1.117485 0.319919 1.004125
v 1.007051 0.393468 0.850041
v 0.982676 0.392669 0.931344
v 1.197818 0.298246 1.017468
v 1.308645 0.278790 0.924996
v 1.106299 0.659367 0.794200
v 1.063327 0.635343 0.986585
v 1.136502 0.603215 0.993539
v 1.061061 0.660287 0.886266
v 1.043568 0.658643 0.943327
v 1.192466 0.586013 1.002779
v 1.270357 0.571804 0.937774
v 1.255401 0.892891 0.948692
v 1.225484 0.866650 1.040161
v 1.257502 0.842193 1.040763
v 1.230386 0.889097 0.993581
v 1.219795 0.884479 1.021257
v 1.282674 0.826613 1.043935
v 1.321313 0.817544 1.011183
vt 0.593750 0.125754
vt 0.593750 0.250000
vt 0.625000 0.250000
vt 0.625000 0.125754
vt 0.593750 0.437500
vt 0.593750 0.500000
vt 0.625000 0.500000
vt 0.625000 0.437500
vt 0.593750 0.624246
vt 0.593750 0.750000
vt 0.625000 0.750000
vt 0.625000 0.624246
vt 0.406250 0.000000
vt 0.406250 0.000000
vt 0.375000 0.000000
vt 0.375000 0.000000
vt 0.312500 0.624246
vt 0.312500 0.750000
vt 0.375000 0.750000
vt 0.375000 0.624246
vt 0.812500 0.624246
vt 0.812500 0.750000
vt 0.875000 0.750000
vt 0.875000 0.624246
vt 0.312500 0.750000
vt 0.375000 0.750000
vt 0.812500 0.750000
vt 0.875000 0.750000
vt 0.593750 0.750000
vt 0.625000 0.750000
vt 0.468750 0.750000
vt 0.468750 0.750000
vt 0.500000 0.750000
vt 0.500000 0.750000
vt 0.531250 0.000000
vt 0.531250 0.000000
vt 0.500000 0.000000
vt 0.500000 0.000000
vt 0.468750 0.624246
vt 0.500000 0.624246
vt 0.468750 0.437500
vt 0.468750 0.500000
vt 0.500000 0.500000
vt 0.500000 0.437500
vt 0.468750 0.125754
vt 0.468750 0.250000
vt 0.500000 0.250000
vt 0.500000 0.125754
vt 0.468750 0.343750
vt 0.468750 0.375000
vt 0.500000 0.375000
vt 0.500000 0.343750
vt 0.687500 0.750000
vt 0.687500 0.750000
vt 0.750000 0.750000
vt 0.750000 0.750000
vt 0.218750 0.750000
vt 0.218750 0.750000
vt 0.250000 0.750000
vt 0.250000 0.750000
vt 0.687500 0.624246
vt 0.750000 0.624246
vt 0.218750 0.624246
vt 0.250000 0.624246
vt 0.593750 0.343750
vt 0.593750 0.375000
vt 0.625000 0.375000
vt 0.625000 0.343750
vt 0.593750 0.312500
vt 0.625000 0.312500
vt 0.125000 0.624246
vt 0.125000 0.750000
vt 0.187500 0.750000
vt 0.187500 0.624246
vt 0.125000 0.750000
vt 0.187500 0.750000
vt 0.468750 0.312500
vt 0.500000 0.312500
vt 0.781250 0.750000
vt 0.781250 0.750000
vt 0.781250 0.624246
vt 0.531250 0.250000
vt 0.531250 0.312500
vt 0.562500 0.312500
vt 0.562500 0.250000
vt 0.531250 0.375000
vt 0.531250 0.437500
vt 0.562500 0.437500
vt 0.562500 0.375000
vt 0.531250 0.343750
vt 0.562500 0.343750
vt 0.593750 0.000000
vt 0.593750 0.000000
vt 0.562500 0.000000
vt 0.562500 0.000000
vt 0.531250 0.750000
vt 0.531250 0.750000
vt 0.562500 0.750000
vt 0.562500 0.750000
vt 0.531250 0.624246
vt 0.562500 0.624246
vt 0.531250 0.500000
vt 0.562500 0.500000
vt 0.531250 0.125754
vt 0.562500 0.125754
vt 0.406250 0.250000
vt 0.406250 0.312500
vt 0.437500 0.312500
vt 0.437500 0.250000
vt 0.406250 0.375000
vt 0.406250 0.437500
vt 0.437500 0.437500
vt 0.437500 0.375000
vt 0.406250 0.343750
vt 0.437500 0.343750
vt 0.406250 0.125754
vt 0.437500 0.125754
vt 0.406250 0.500000
vt 0.437500 0.500000
vt 0.406250 0.624246
vt 0.406250 0.750000
vt 0.437500 0.750000
vt 0.437500 0.624246
vt 0.406250 0.750000
vt 0.437500 0.750000
vt 0.468750 0.000000
vt 0.468750 0.000000
vt 0.437500 0.000000
vt 0.437500 0.000000
vt 0.812500 0.750000
vt 0.875000 0.750000
vt 0.593750 0.750000
vt 0.625000 0.750000
vt 0.468750 0.750000
vt 0.500000 0.750000
vt 0.250000 0.750000
vt 0.312500 0.750000
vt 0.468750 0.000000
vt 0.437500 0.000000
vt 0.531250 0.750000
vt 0.562500 0.750000
vt 0.125000 0.750000
vt 0.187500 0.750000
vt 0.406250 0.000000
vt 0.375000 0.000000
vt 0.531250 0.000000
vt 0.500000 0.000000
vt 0.593750 0.000000
vt 0.562500 0.000000
vt 0.218750 0.750000
vt 0.406250 0.750000
vt 0.437500 0.750000
vt 0.687500 0.750000
vt 0.750000 0.750000
vt 0.375000 0.750000
vt 0.781250 0.750000
vt 0.781250 0.750000
vt 0.781250 0.750000
vt 0.812500 0.750000
vt 0.812500 0.750000
vt 0.875000 0.750000
vt 0.875000 0.750000
vt 0.750000 0.750000
vt 0.750000 0.750000
vt 0.750000 0.750000
vt 0.781250 0.750000
vt 0.812500 0.750000
vt 0.875000 0.750000
vt 0.750000 0.750000
vt 0.750000 0.750000
vt 0.781250 0.750000
vt 0.781250 0.750000
vt 0.812500 0.750000
vt 0.812500 0.750000
vt 0.875000 0.750000
vt 0.875000 0.750000
vt 0.750000 0.750000
vt 0.750000 0.750000
vt 0.781250 0.750000
vt 0.781250 0.750000
vt 0.812500 0.750000
vt 0.812500 0.750000
vt 0.875000 0.750000
vt 0.875000 0.750000
vt 0.750000 0.750000
vt 0.781250 0.750000
vt 0.812500 0.750000
vt 0.875000 0.750000
vt 0.750000 0.750000
vt 0.781250 0.750000
vt 0.812500 0.750000
vt 0.875000 0.750000
vt 0.750000 0.750000
vt 0.781250 0.750000
vt 0.812500 0.750000
vt 0.875000 0.750000
vt 0.625000 0.000000
vt 0.625000 0.000000
vt 0.625000 0.000000
vt 0.531250 0.000000
vt 0.500000 0.000000
vt 0.593750 0.000000
vt 0.562500 0.000000
vt 0.625000 0.000000
vt 0.531250 0.000000
vt 0.500000 0.000000
vt 0.562500 0.000000
vt 0.593750 0.000000
vt 0.625000 0.000000
vt 0.625000 0.000000
vt 0.593750 0.000000
vt 0.531250 0.000000
vt 0.500000 0.000000
vt 0.562500 0.000000
vt 0.625000 0.000000
vt 0.593750 0.000000
vt 0.531250 0.000000
vt 0.500000 0.000000
vt 0.562500 0.000000
vt 0.593750 0.000000
vt 0.562500 0.000000
vt 0.625000 0.000000
vt 0.531250 0.000000
vt 0.500000 0.000000
vt 0.375000 0.312500
vt 0.375000 0.343750
vt 0.375000 0.437500
vt 0.375000 0.500000
vt 0.375000 0.125754
vt 0.375000 0.250000
vt 0.375000 0.375000
vt 0.406250 0.000000
vt 0.375000 0.000000
vt 0.468750 0.000000
vt 0.437500 0.000000
vt 0.500000 0.000000
vt 0.500000 0.000000
vt 0.500000 0.000000
vt 0.468750 0.000000
vt 0.437500 0.000000
vt 0.500000 0.000000
vt 0.406250 0.000000
vt 0.375000 0.000000
vt 0.406250 0.000000
vt 0.375000 0.000000
vt 0.437500 0.000000
vt 0.468750 0.000000
vt 0.500000 0.000000
vt 0.406250 0.000000
vt 0.375000 0.000000
vt 0.437500 0.000000
vt 0.468750 0.000000
vt 0.500000 0.000000
vt 0.187500 0.500000
vt 0.218750 0.500000
vt 0.750000 0.500000
vt 0.781250 0.500000
vt 0.812500 0.500000
vt 0.125000 0.500000
vt 0.250000 0.500000
vt 0.312500 0.500000
vt 0.687500 0.500000
vt 0.875000 0.500000
vt 0.250000 0.750000
vt 0.312500 0.750000
vt 0.218750 0.750000
vt 0.218750 0.750000
vt 0.375000 0.750000
vt 0.125000 0.750000
vt 0.187500 0.750000
vt 0.218750 0.750000
vt 0.250000 0.750000
vt 0.312500 0.750000
vt 0.187500 0.750000
vt 0.218750 0.750000
vt 0.375000 0.750000
vt 0.125000 0.750000
vt 0.187500 0.750000
vt 0.218750 0.750000
vt 0.312500 0.750000
vt 0.375000 0.750000
vt 0.218750 0.750000
vt 0.250000 0.750000
vt 0.125000 0.750000
vt 0.187500 0.750000
vt 0.218750 0.750000
vt 0.312500 0.750000
vt 0.375000 0.750000
vt 0.218750 0.750000
vt 0.250000 0.750000
vt 0.125000 0.750000
vt 0.000000 0.000000
vt 0.000000 0.000000
vt 0.593750 0.750000
vt 0.625000 0.750000
vt 0.687500 0.750000
vt 0.750000 0.750000
vt 0.687500 0.750000
vt 0.687500 0.750000
vt 0.750000 0.750000
vt 0.750000 0.750000
vt 0.625000 0.750000
vt 0.625000 0.750000
vt 0.593750 0.750000
vt 0.593750 0.750000
vt 0.687500 0.750000
vt 0.750000 0.750000
vt 0.625000 0.750000
vt 0.593750 0.750000
vt 0.687500 0.750000
vt 0.750000 0.750000
vt 0.625000 0.750000
vt 0.593750 0.750000
vt 0.593750 0.750000
vt 0.625000 0.750000
vt 0.687500 0.750000
vt 0.750000 0.750000
vt 0.562500 0.750000
vt 0.593750 0.750000
vt 0.468750 0.750000
vt 0.500000 0.750000
vt 0.531250 0.750000
vt 0.406250 0.750000
vt 0.437500 0.750000
vt 0.531250 0.750000
vt 0.562500 0.750000
vt 0.500000 0.750000
vt 0.406250 0.750000
vt 0.437500 0.750000
vt 0.468750 0.750000
vt 0.593750 0.750000
vt 0.500000 0.750000
vt 0.531250 0.750000
vt 0.406250 0.750000
vt 0.437500 0.750000
vt 0.468750 0.750000
vt 0.562500 0.750000
vt 0.593750 0.750000
vt 0.500000 0.750000
vt 0.531250 0.750000
vt 0.406250 0.750000
vt 0.437500 0.750000
vt 0.468750 0.750000
vt 0.562500 0.750000
vt 0.593750 0.750000
vt 0.500000 0.750000
vt 0.531250 0.750000
vt 0.406250 0.750000
vt 0.437500 0.750000
vt 0.468750 0.750000
vt 0.562500 0.750000
vt 0.593750 0.750000
vt 0.500000 0.750000
vt 0.531250 0.750000
vt 0.406250 0.750000
vt 0.437500 0.750000
vt 0.468750 0.750000
vt 0.562500 0.750000
vt 0.593750 0.750000
vn 0.7240 -0.6898 -0.0016
vn -0.6266 -0.5267 0.5744
vn -0.8186 -0.2151 0.5326
vn 0.2122 0.4559 0.8644
vn -0.0741 0.7743 0.6285
vn 0.2565 -0.5813 0.7722
vn -0.2765 0.3740 0.8852
vn 0.2044 -0.7868 0.5824
vn -0.5332 -0.2899 0.7948
vn -0.6403 0.1017 0.7614
vn 0.5089 -0.2644 0.8192
vn -0.8187 0.3651 0.4431
vn -0.6468 0.1869 0.7394
vn 0.9841 0.0897 0.1533
vn 0.1245 0.3156 0.9407
vn -0.1084 -0.8604 0.4980
vn -0.0026 0.3364 0.9417
vn -0.2523 -0.8953 0.3673
vn 0.0753 0.7366 0.6721
vn 0.0198 -0.8329 0.5531
vn -0.5973 -0.6879 0.4122
vn -0.2911 -0.6649 0.6879
vn -0.6332 0.2855 0.7194
vn -0.1097 0.3995 0.9101
vn -0.1398 0.7129 0.6872
vn -0.3098 -0.6688 0.6758
vn 0.6369 -0.6659 0.3884
vn -0.1252 0.7114 0.6915
vn 0.0079 0.4000 0.9165
vn 0.7664 0.2052 0.6087
vn -0.0883 -0.8718 0.4818
vn 0.1054 -0.8279 0.5509
vn 0.7372 -0.3590 0.5724
vn -0.4946 -0.4228 0.7593
vn 0.0128 -0.4484 0.8937
vn 0.6694 -0.1120 0.7345
vn -0.7471 -0.0633 0.6617
vn -0.8137 0.0184 0.5809
vn -0.6985 -0.2895 0.6545
vn 0.9202 -0.3607 0.1517
vn 0.5483 0.4847 0.6815
vn -0.3439 0.5682 0.7476
vn -0.0064 0.6435 0.7654
vn 0.7363 0.6607 0.1463
vn -0.7413 0.4997 0.4482
vn -0.8521 0.3874 0.3520
vn -0.5834 0.0751 0.8087
vn 0.2571 0.4647 0.8473
vn 0.1441 0.2908 0.9459
vn 0.0178 0.1236 0.9922
vn -0.4585 -0.0722 0.8858
vn -0.1316 0.0392 0.9905
vn 0.1802 0.1597 0.9706
vn -0.1419 0.1231 0.9822
vn -0.0345 0.0628 0.9974
vn 0.0397 -0.1200 0.9920
vn 0.6410 -0.1784 0.7465
vn 0.6133 -0.0140 0.7897
vn -0.0333 0.1180 0.9925
vn -0.3731 -0.2101 0.9037
vn 0.1041 0.1830 0.9776
vn -0.0550 0.7672 0.6390
vn -0.1396 -0.0641 0.9881
vn 0.0166 0.5046 0.8632
vn 0.4497 -0.1946 0.8717
vn -0.3977 -0.5554 0.7303
vn -0.1820 0.4119 0.8929
vn 0.3523 0.4270 0.8328
vn 0.3487 0.7876 0.5080
vn 0.7889 0.2478 0.5623
vn 0.2410 0.6829 0.6896
vn -0.0356 0.1419 0.9892
vn 0.2231 0.6706 0.7075
vn 0.3135 -0.4269 0.8482
vn -0.0921 -0.8891 0.4483
vn -0.1939 -0.8851 0.4231
vn 0.2289 -0.7571 0.6119
vn -0.0368 0.7570 0.6524
vn -0.0263 0.3062 0.9516
vn 0.3004 0.2726 0.9140
vn 0.8410 0.1555 0.5182
vn 0.6058 -0.2295 0.7618
vn -0.2296 -0.8442 0.4844
vn 0.3892 0.6888 0.6116
vn 0.5977 0.0526 0.8000
vn 0.1206 -0.8736 0.4714
vn 0.0750 0.8887 0.4523
vn 0.6455 0.3218 0.6927
vn 0.2955 -0.9423 0.1572
vn -0.0313 -0.9129 0.4069
vn 0.6104 -0.2474 0.7525
vn 0.8183 0.2803 0.5018
vn 0.5869 0.7784 0.2230
vn 0.5601 0.1386 0.8167
vn -0.0958 -0.9002 0.4249
vn 0.4890 -0.8640 0.1201
vn 0.3940 0.3283 0.8585
vn 0.0500 0.8512 0.5224
vn 0.9035 0.3986 0.1576
vn 0.4639 0.0982 0.8804
vn -0.6464 -0.3459 0.6801
vn 0.9994 0.0352 -0.0062
vn 0.5107 0.2672 0.8172
vn -0.7130 0.5018 0.4898
vn 0.2768 -0.6520 0.7059
vn 0.3408 -0.1598 0.9264
vn -0.1245 0.7466 0.6535
vn 0.3941 -0.6280 0.6711
vn 0.7279 -0.4908 0.4789
vn -0.4153 -0.4875 0.7681
vn 0.0076 -0.6674 0.7447
vn -0.7690 0.2130 0.6027
vn -0.8393 -0.1628 0.5188
vn -0.6582 -0.4231 0.6227
vn 0.8232 -0.5592 0.0981
vn 0.3408 -0.0273 0.9397
vn 0.6143 -0.2222 0.7572
vn -0.3378 0.0274 0.9408
vn 0.9868 -0.0851 0.1379
vn -0.6363 0.0889 0.7663
vn -0.8501 0.0750 0.5212
vn -0.6985 -0.0692 0.7123
vn 0.0658 -0.0712 0.9953
vn -0.6606 0.0283 0.7502
vn 0.7560 -0.1422 0.6389
vn 0.5282 -0.1909 0.8274
vn -0.0748 -0.6548 0.7521
vn 0.4611 -0.0878 0.8830
vn 0.4912 0.6910 0.5303
vn 0.3730 -0.1893 0.9083
vn 0.1889 -0.7866 0.5878
vn 0.4392 -0.5731 0.6918
vn 0.7346 0.0227 0.6781
vn 0.6581 0.6690 0.3454
vn 0.3648 0.6736 0.6428
vn 0.1430 0.8928 0.4272
vn 0.5239 -0.7576 0.3894
vn 0.6332 -0.5343 0.5600
vn 0.6505 0.3559 0.6710
vn 0.0055 0.8764 0.4816
vn 0.7442 -0.6432 0.1802
vn 0.7476 -0.2061 0.6314
vn 0.3110 0.5996 0.7374
vn -0.2400 0.4701 0.8493
vn -0.4916 0.5651 0.6626
vn 0.7808 -0.5770 0.2397
vn 0.1841 0.0693 0.9805
vn 0.2972 0.4566 0.8386
vn 0.6049 -0.1660 0.7788
vn -0.3203 0.1106 0.9408
vn 0.4504 0.2031 0.8694
vn 0.6451 0.4394 0.6251
vn -0.4535 0.4431 0.7733
vn 0.0390 0.5966 0.8016
vn 0.9567 0.1724 0.2344
vn -0.8047 0.3393 0.4871
vn -0.8796 0.3144 0.3570
vn -0.5622 0.2620 0.7844
vn 0.2323 0.8121 0.5353
vn -0.3400 -0.3532 0.8716
vn 0.0110 0.0951 0.9954
vn -0.5822 0.0336 0.8123
vn -0.7151 0.5404 0.4433
vn -0.5978 0.7775 0.1950
vn 0.6074 0.7944 -0.0011
vn 0.0096 0.8462 0.5328
vn -0.2838 0.8332 0.4745
vn 0.4927 0.7055 0.5094
vn 0.3668 0.2716 0.8898
vn 0.5025 -0.3884 0.7724
vn 0.6016 -0.0386 0.7979
vn -0.1512 0.3394 0.9284
vn 0.4497 -0.0409 0.8922
vn -0.2095 -0.4043 0.8903
vn -0.6660 -0.6110 0.4279
vn -0.7010 0.6692 0.2465
vn 0.6101 0.0091 0.7922
vn 0.1036 0.6793 0.7265
vn 0.7804 -0.5250 0.3396
vn 0.7290 -0.2127 0.6506
vn 0.6037 -0.6481 0.4643
vn 0.6720 -0.3441 0.6558
vn 0.5998 0.0931 0.7947
vn 0.1272 0.7227 0.6793
vn 0.3624 -0.8091 0.4626
vn 0.4218 -0.4994 0.7568
vn 0.3640 0.0576 0.9296
vn 0.1940 0.6078 0.7700
vn 0.0171 0.6348 0.7725
vn -0.5594 0.8205 -0.1179
vn -0.9436 0.3287 -0.0403
vn 0.6949 0.3811 0.6098
vn -0.9972 -0.0618 -0.0430
vn 0.6405 -0.1152 0.7593
vn 0.5447 -0.0837 0.8345
vn -0.9365 -0.3507 -0.0017
vn 0.1677 0.9727 -0.1605
vn 0.0158 -0.9977 0.0653
vn -0.8552 0.5182 -0.0092
vn 0.5705 0.5162 0.6389
vn 0.7086 -0.2324 0.6663
vn -0.9442 -0.3282 -0.0281
vn 0.3034 -0.9522 0.0352
vn 0.3330 0.9371 -0.1048
vn -0.2043 0.9609 -0.1871
vn -0.5255 -0.8508 -0.0024
vn 0.0321 0.9809 -0.1917
vn -0.1717 -0.9814 0.0856
vn 0.4543 0.2841 0.8443
vn -0.9965 0.0755 -0.0350
vn 0.4096 -0.9116 -0.0356
vn -0.4213 0.8925 -0.1613
vn -0.9341 -0.3558 -0.0291
vn 0.2690 -0.5166 0.8128
vn -0.0089 -0.1719 0.9851
vn -0.1024 -0.1222 0.9872
vn 0.2915 -0.6791 0.6737
vn -0.5772 -0.4863 0.6560
vn -0.2091 -0.2955 0.9322
vn -0.1698 -0.4160 0.8934
vn 0.1565 -0.4213 0.8933
vn -0.4817 -0.3150 0.8178
vn 0.6607 -0.1974 0.7242
vn -0.1843 -0.3864 0.9037
vn -0.7751 -0.1102 0.6221
vn -0.4401 -0.4959 0.7486
vn 0.5485 -0.6515 0.5241
vn -0.0665 -0.6190 0.7826
vn -0.7422 -0.2940 0.6023
vn -0.1933 -0.6010 0.7755
vn 0.0642 -0.6419 0.7641
vn -0.2873 -0.6652 0.6892
vn 0.5622 -0.5174 0.6452
vn -0.0245 -0.6200 0.7842
vn -0.6135 -0.6983 0.3689
vn -0.2321 -0.6544 0.7196
vn 0.0407 -0.6080 0.7929
vn 0.5391 -0.6587 0.5248
vn 0.4292 -0.7753 0.4634
vn 0.4600 0.2051 0.8639
vn -0.0846 0.3393 0.9369
vn -0.3980 0.6114 0.6839
vn -0.8395 0.3924 0.3758
vn -0.4046 -0.4593 0.7908
vn 0.5223 -0.7494 0.4069
vn -0.5120 0.6871 0.5156
vn -0.5414 -0.4338 0.7202
vn -0.1245 -0.9878 0.0938
vn 0.0279 0.6473 0.7617
vn -0.2553 -0.2865 0.9234
vn -0.0568 -0.9241 0.3778
vn 0.5429 -0.3599 0.7588
vn -0.7484 0.3211 0.5804
vn -0.1815 -0.1251 0.9754
vn -0.2160 -0.2540 0.9428
vn -0.8782 0.2325 0.4179
vn 0.6696 -0.3691 0.6445
vn -0.2172 0.7599 0.6126
vn -0.6224 -0.1209 0.7733
vn -0.3503 0.4829 0.8025
vn -0.5352 0.2123 0.8176
vn -0.5243 -0.2732 0.8065
vn -0.5831 -0.2308 0.7789
vn -0.3031 0.6857 0.6618
vn -0.5568 0.3910 0.7329
vn -0.4964 -0.7442 0.4470
vn -0.6864 0.2355 0.6881
vn -0.7625 -0.2938 0.5765
vn 0.0812 0.8671 0.4915
vn -0.8539 0.3544 0.3811
vn 0.0363 -0.8916 0.4513
vn -0.7838 0.3446 0.5167
vn -0.5902 -0.3885 0.7076
vn -0.5936 0.7835 -0.1840
vn -0.7423 0.6689 0.0396
vn -0.9370 0.0285 0.3482
vn 0.6338 -0.2382 0.7359
vn -0.4550 -0.0449 0.8894
vn -0.1690 -0.0584 0.9839
vn -0.8939 0.2038 -0.3992
vn -0.9557 0.1513 -0.2525
vn -0.8558 0.1735 0.4873
vn 0.6452 0.0510 0.7623
vn -0.0803 0.0416 0.9959
vn -0.1501 0.0473 0.9875
vn -0.8719 0.2352 -0.4295
vn -0.9334 0.2265 -0.2784
vn -0.7364 0.3851 0.5563
vn 0.5633 -0.3408 0.7527
vn -0.1388 -0.1269 0.9821
vn -0.1887 -0.0970 0.9772
vn -0.6774 0.6555 -0.3337
vn -0.7399 0.6430 -0.1977
usemtl None
s off
f 1/1/1 4/2/1 3/3/1 2/4/1
f 5/5/2 8/6/2 7/7/2 6/8/2
f 9/9/3 12/10/3 11/11/3 10/12/3
f 13/13/4 16/14/4 15/15/4 14/16/4
f 17/17/5 20/18/5 19/19/5 18/20/5
f 21/21/6 23/22/6 22/23/6 2/24/6
f 20/18/7 25/25/7 24/26/7 19/19/7
f 23/22/8 27/27/8 26/28/8 22/23/8
f 12/10/9 29/29/9 28/30/9 11/11/9
f 30/31/10 33/32/10 32/33/10 31/34/10
f 34/35/11 37/36/11 36/37/11 35/38/11
f 38/39/12 30/31/12 31/34/12 39/40/12
f 40/41/13 43/42/13 42/43/13 41/44/13
f 44/45/14 47/46/14 46/47/14 45/48/14
f 48/49/15 51/50/15 50/51/15 49/52/15
f 52/53/16 55/54/16 54/55/16 53/56/16
f 56/57/17 59/58/17 58/59/17 57/60/17
f 60/61/18 52/53/18 53/56/18 61/62/18
f 62/63/19 56/57/19 57/60/19 63/64/19
f 64/65/20 67/66/20 66/67/20 65/68/20
f 10/12/21 11/11/21 52/53/21 60/61/21
f 11/11/22 28/30/22 55/54/22 52/53/22
f 51/50/23 40/41/23 41/44/23 50/51/23
f 57/60/24 58/59/24 25/25/24 20/18/24
f 63/64/25 57/60/25 20/18/25 17/17/25
f 67/66/26 5/5/26 6/8/26 66/67/26
f 4/2/27 69/69/27 68/70/27 3/3/27
f 70/71/28 14/72/28 72/73/28 71/74/28
f 14/72/29 15/75/29 73/76/29 72/73/29
f 47/46/30 75/77/30 74/78/30 46/47/30
f 76/79/31 77/80/31 27/27/31 23/22/31
f 78/81/32 76/79/32 23/22/32 21/21/32
f 79/82/33 82/83/33 81/84/33 80/85/33
f 83/86/34 86/87/34 85/88/34 84/89/34
f 87/90/35 83/86/35 84/89/35 88/91/35
f 89/92/36 92/93/36 91/94/36 90/95/36
f 93/96/37 96/97/37 95/98/37 94/99/37
f 97/100/38 93/96/38 94/99/38 98/101/38
f 86/87/39 100/102/39 99/103/39 85/88/39
f 101/104/40 79/82/40 80/85/40 102/105/40
f 103/106/41 106/107/41 105/108/41 104/109/41
f 107/110/42 110/111/42 109/112/42 108/113/42
f 111/114/43 107/110/43 108/113/43 112/115/43
f 113/116/44 103/106/44 104/109/44 114/117/44
f 110/111/45 116/118/45 115/119/45 109/112/45
f 117/120/46 120/121/46 119/122/46 118/123/46
f 120/121/47 122/124/47 121/125/47 119/122/47
f 123/126/48 126/127/48 125/128/48 124/129/48
f 27/27/49 128/130/49 127/131/49 26/28/49
f 29/29/50 130/132/50 129/133/50 28/30/50
f 33/32/51 132/134/51 131/135/51 32/33/51
f 58/59/52 134/136/52 133/137/52 25/25/52
f 126/127/53 136/138/53 135/139/53 125/128/53
f 96/97/54 138/140/54 137/141/54 95/98/54
f 15/75/55 140/142/55 139/143/55 73/76/55
f 16/14/56 141/144/56 140/145/56 15/15/56
f 37/36/57 143/146/57 142/147/57 36/37/57
f 92/93/58 145/148/58 144/149/58 91/94/58
f 59/58/59 146/150/59 134/136/59 58/59/59
f 122/124/60 148/151/60 147/152/60 121/125/60
f 28/30/61 129/133/61 149/153/61 55/54/61
f 55/54/62 149/153/62 150/154/62 54/55/62
f 25/25/63 133/137/63 151/155/63 24/26/63
f 77/80/64 152/156/64 128/130/64 27/27/64
f 153/157/65 156/158/65 155/159/65 154/160/65
f 154/160/66 155/159/66 158/161/66 157/162/66
f 128/130/67 154/160/67 157/162/67 127/131/67
f 152/156/68 153/157/68 154/160/68 128/130/68
f 150/154/69 159/163/69 153/157/69 152/156/69
f 159/163/70 160/164/70 156/158/70 153/157/70
f 54/55/71 150/154/71 152/156/71 77/80/71
f 73/76/72 139/143/72 146/150/72 59/58/72
f 106/107/73 111/114/73 112/115/73 105/108/73
f 82/83/74 87/90/74 88/91/74 81/84/74
f 61/62/75 53/56/75 76/79/75 78/81/75
f 53/56/76 54/55/76 77/80/76 76/79/76
f 69/69/77 64/65/77 65/68/77 68/70/77
f 71/74/78 72/73/78 56/57/78 62/63/78
f 72/73/79 73/76/79 59/58/79 56/57/79
f 75/77/80 48/49/80 49/52/80 74/78/80
f 160/164/81 162/165/81 161/166/81 156/158/81
f 156/158/82 161/166/82 163/167/82 155/159/82
f 155/159/83 163/167/83 164/168/83 158/161/83
f 165/169/84 168/170/84 167/171/84 166/172/84
f 166/172/85 167/171/85 170/173/85 169/174/85
f 169/174/86 170/173/86 172/175/86 171/176/86
f 173/177/87 176/178/87 175/179/87 174/180/87
f 174/180/88 175/179/88 178/181/88 177/182/88
f 177/182/89 178/181/89 180/183/89 179/184/89
f 163/167/90 169/174/90 171/176/90 164/168/90
f 161/166/91 166/172/91 169/174/91 163/167/91
f 162/165/92 165/169/92 166/172/92 161/166/92
f 176/178/93 182/185/93 181/186/93 175/179/93
f 175/179/94 181/186/94 183/187/94 178/181/94
f 178/181/95 183/187/95 184/188/95 180/183/95
f 170/173/96 177/182/96 179/184/96 172/175/96
f 167/171/97 174/180/97 177/182/97 170/173/97
f 168/170/98 173/177/98 174/180/98 167/171/98
f 182/185/99 186/189/99 185/190/99 181/186/99
f 181/186/100 185/190/100 187/191/100 183/187/100
f 183/187/101 187/191/101 188/192/101 184/188/101
f 186/189/102 190/193/102 189/194/102 185/190/102
f 185/190/103 189/194/103 191/195/103 187/191/103
f 187/191/104 191/195/104 192/196/104 188/192/104
f 81/84/105 88/91/105 64/65/105 69/69/105
f 26/197/106 127/198/106 145/148/106 92/93/106
f 95/98/107 137/141/107 130/132/107 29/29/107
f 22/199/108 26/197/108 92/93/108 89/92/108
f 80/85/109 81/84/109 69/69/109 4/2/109
f 84/89/110 85/88/110 5/5/110 67/66/110
f 88/91/111 84/89/111 67/66/111 64/65/111
f 94/99/112 95/98/112 29/29/112 12/10/112
f 98/101/113 94/99/113 12/10/113 9/9/113
f 85/88/114 99/103/114 8/6/114 5/5/114
f 102/105/115 80/85/115 4/2/115 1/1/115
f 74/78/116 49/52/116 87/90/116 82/83/116
f 91/94/117 144/149/117 143/146/117 37/36/117
f 32/33/118 131/135/118 138/140/118 96/97/118
f 45/48/119 46/47/119 79/82/119 101/104/119
f 41/44/120 42/43/120 100/102/120 86/87/120
f 39/40/121 31/34/121 93/96/121 97/100/121
f 31/34/122 32/33/122 96/97/122 93/96/122
f 49/52/123 50/51/123 83/86/123 87/90/123
f 50/51/124 41/44/124 86/87/124 83/86/124
f 46/47/125 74/78/125 82/83/125 79/82/125
f 90/95/126 91/94/126 37/36/126 34/35/126
f 143/146/127 194/200/127 193/201/127 142/147/127
f 145/148/128 196/202/128 195/203/128 144/149/128
f 127/198/129 197/204/129 196/202/129 145/148/129
f 144/149/130 195/203/130 194/200/130 143/146/130
f 194/200/131 199/205/131 198/206/131 193/201/131
f 195/203/132 200/207/132 199/205/132 194/200/132
f 196/202/133 201/208/133 200/207/133 195/203/133
f 197/204/134 202/209/134 201/208/134 196/202/134
f 127/198/135 157/162/135 197/204/135
f 202/209/136 204/210/136 203/211/136 201/208/136
f 199/205/137 206/212/137 205/213/137 198/206/137
f 200/207/138 207/214/138 206/212/138 199/205/138
f 201/208/139 203/211/139 207/214/139 200/207/139
f 204/210/140 209/215/140 208/216/140 203/211/140
f 206/212/141 211/217/141 210/218/141 205/213/141
f 207/214/142 212/219/142 211/217/142 206/212/142
f 203/211/143 208/216/143 212/219/143 207/214/143
f 208/216/144 214/220/144 213/221/144 212/219/144
f 209/215/145 215/222/145 214/220/145 208/216/145
f 211/217/146 217/223/146 216/224/146 210/218/146
f 212/219/147 213/221/147 217/223/147 211/217/147
f 105/108/148 112/115/148 48/49/148 75/77/148
f 36/37/149 142/147/149 136/138/149 126/127/149
f 121/125/150 147/152/150 132/134/150 33/32/150
f 35/38/151 36/37/151 126/127/151 123/126/151
f 104/109/152 105/108/152 75/77/152 47/46/152
f 108/113/153 109/112/153 40/41/153 51/50/153
f 112/115/154 108/113/154 51/50/154 48/49/154
f 114/117/155 104/109/155 47/46/155 44/45/155
f 109/112/156 115/119/156 43/42/156 40/41/156
f 118/123/157 119/122/157 30/31/157 38/39/157
f 119/122/158 121/125/158 33/32/158 30/31/158
f 218/225/159 219/226/159 111/114/159 106/107/159
f 24/26/160 151/155/160 148/151/160 122/124/160
f 125/128/161 135/139/161 141/144/161 16/14/161
f 19/19/162 24/26/162 122/124/162 120/121/162
f 18/20/163 19/19/163 120/121/163 117/120/163
f 220/227/164 221/228/164 116/118/164 110/111/164
f 70/229/165 222/230/165 103/106/165 113/116/165
f 219/226/166 223/231/166 107/110/166 111/114/166
f 223/231/167 220/227/167 110/111/167 107/110/167
f 222/230/168 218/225/168 106/107/168 103/106/168
f 124/129/169 125/128/169 16/14/169 13/13/169
f 141/144/170 225/232/170 224/233/170 140/145/170
f 136/138/171 227/234/171 226/235/171 135/139/171
f 142/147/172 229/236/172 228/237/172 227/234/172 136/138/172
f 135/139/173 226/235/173 225/232/173 141/144/173
f 142/147/174 193/201/174 229/236/174
f 193/201/175 230/238/175 229/236/175
f 230/238/176 228/237/176 229/236/176
f 227/234/177 232/239/177 231/240/177 226/235/177
f 228/237/178 233/241/178 232/239/178 227/234/178
f 225/232/179 235/242/179 234/243/179 224/233/179
f 226/235/180 231/240/180 235/242/180 225/232/180
f 235/242/181 237/244/181 236/245/181 234/243/181
f 231/240/182 238/246/182 237/244/182 235/242/182
f 232/239/183 239/247/183 238/246/183 231/240/183
f 233/241/184 240/248/184 239/247/184 232/239/184
f 237/244/185 242/249/185 241/250/185 236/245/185
f 238/246/186 243/251/186 242/249/186 237/244/186
f 239/247/187 244/252/187 243/251/187 238/246/187
f 240/248/188 245/253/188 244/252/188 239/247/188
f 14/16/189 70/229/189 113/116/189 13/13/189
f 221/228/190 18/20/190 117/120/190 116/118/190
f 115/119/191 118/123/191 38/39/191 43/42/191
f 124/129/192 114/117/192 44/45/192 123/126/192
f 42/43/193 39/40/193 97/100/193 100/102/193
f 35/38/194 45/48/194 101/104/194 34/35/194
f 90/95/195 102/105/195 1/1/195 89/92/195
f 99/103/196 98/101/196 9/9/196 8/6/196
f 218/254/197 71/74/197 62/63/197 219/255/197
f 66/256/198 61/62/198 78/81/198 65/257/198
f 116/118/199 117/120/199 118/123/199 115/119/199
f 13/13/200 113/116/200 114/117/200 124/129/200
f 34/35/201 101/104/201 102/105/201 90/95/201
f 100/102/202 97/100/202 98/101/202 99/103/202
f 65/257/203 78/81/203 21/21/203 68/258/203
f 222/259/204 70/71/204 71/74/204 218/254/204
f 223/260/205 63/64/205 17/17/205 220/261/205
f 7/7/206 10/12/206 60/61/206 6/262/206
f 219/255/207 62/63/207 63/64/207 223/260/207
f 6/262/208 60/61/208 61/62/208 66/256/208
f 123/126/209 44/45/209 45/48/209 35/38/209
f 43/42/210 38/39/210 39/40/210 42/43/210
f 68/258/211 21/21/211 2/24/211 3/263/211
f 220/261/212 17/17/212 18/20/212 221/228/212
f 8/6/213 9/9/213 10/12/213 7/7/213
f 89/92/214 1/1/214 2/4/214 22/199/214
f 134/136/215 247/264/215 246/265/215 133/137/215
f 146/150/216 249/266/216 248/267/216 247/264/216 134/136/216
f 133/137/217 246/265/217 250/268/217 151/155/217
f 140/142/218 252/269/218 251/270/218 139/143/218
f 139/143/219 251/270/219 249/266/219 146/150/219
f 248/267/220 256/271/220 255/272/220 247/264/220
f 247/264/221 255/272/221 254/273/221 246/265/221
f 251/270/222 259/274/222 257/275/222 249/266/222
f 246/265/223 254/273/223 258/276/223 250/268/223
f 249/266/224 257/275/224 256/271/224 248/267/224
f 252/269/225 260/277/225 259/274/225 251/270/225
f 259/274/226 266/278/226 264/279/226 257/275/226
f 254/273/227 261/280/227 265/281/227 258/276/227
f 256/271/228 263/282/228 262/283/228 255/272/228
f 260/277/229 267/284/229 266/278/229 259/274/229
f 257/275/230 264/279/230 263/282/230 256/271/230
f 255/272/231 262/283/231 261/280/231 254/273/231
f 266/278/232 273/285/232 271/286/232 264/279/232
f 261/280/233 268/287/233 272/288/233 265/281/233
f 263/282/234 270/289/234 269/290/234 262/283/234
f 267/284/235 274/291/235 273/285/235 266/278/235
f 264/279/236 271/286/236 270/289/236 263/282/236
f 262/283/237 269/290/237 268/287/237 261/280/237
f 224/233/238 275/292/238 252/269/238 140/145/238
f 253/293/239 260/277/239 252/269/239 275/292/239
f 130/132/240 279/294/240 278/295/240 129/133/240
f 129/133/241 278/295/241 277/296/241 149/153/241
f 149/153/242 277/296/242 276/297/242 150/154/242
f 282/298/243 286/299/243 287/300/243 283/301/243
f 280/302/244 284/303/244 286/299/244 282/298/244
f 281/304/245 285/305/245 284/303/245 280/302/245
f 286/299/246 290/306/246 291/307/246 287/300/246
f 284/303/247 288/308/247 290/306/247 286/299/247
f 285/305/248 289/309/248 288/308/248 284/303/248
f 290/306/249 294/310/249 295/311/249 291/307/249
f 288/308/250 292/312/250 294/310/250 290/306/250
f 289/309/251 293/313/251 292/312/251 288/308/251
f 297/314/252 299/315/252 278/295/252 279/294/252
f 296/316/253 298/317/253 276/297/253 277/296/253
f 296/316/254 277/296/254 278/295/254 299/315/254
f 282/298/255 296/316/255 299/315/255 280/302/255
f 282/298/256 283/301/256 298/317/256 296/316/256
f 281/304/257 280/302/257 299/315/257 297/314/257
f 137/141/258 303/318/258 300/319/258 130/132/258
f 132/134/259 302/320/259 301/321/259 131/135/259
f 138/140/260 304/322/260 303/318/260 137/141/260
f 131/135/261 301/321/261 304/322/261 138/140/261
f 148/151/262 306/323/262 305/324/262 147/152/262
f 147/152/263 305/324/263 302/320/263 132/134/263
f 304/322/264 311/325/264 310/326/264 303/318/264
f 301/321/265 308/327/265 311/325/265 304/322/265
f 306/323/266 313/328/266 312/329/266 305/324/266
f 302/320/267 309/330/267 308/327/267 301/321/267
f 305/324/268 312/329/268 309/330/268 302/320/268
f 303/318/269 310/326/269 307/331/269 300/319/269
f 308/327/270 315/332/270 318/333/270 311/325/270
f 313/328/271 320/334/271 319/335/271 312/329/271
f 309/330/272 316/336/272 315/332/272 308/327/272
f 312/329/273 319/335/273 316/336/273 309/330/273
f 310/326/274 317/337/274 314/338/274 307/331/274
f 311/325/275 318/333/275 317/337/275 310/326/275
f 315/332/276 322/339/276 325/340/276 318/333/276
f 320/334/277 327/341/277 326/342/277 319/335/277
f 316/336/278 323/343/278 322/339/278 315/332/278
f 319/335/279 326/342/279 323/343/279 316/336/279
f 317/337/280 324/344/280 321/345/280 314/338/280
f 318/333/281 325/340/281 324/344/281 317/337/281
f 322/339/282 329/346/282 332/347/282 325/340/282
f 327/341/283 334/348/283 333/349/283 326/342/283
f 323/343/284 330/350/284 329/346/284 322/339/284
f 326/342/285 333/349/285 330/350/285 323/343/285
f 324/344/286 331/351/286 328/352/286 321/345/286
f 325/340/287 332/347/287 331/351/287 324/344/287
f 329/346/288 336/353/288 339/354/288 332/347/288
f 334/348/289 341/355/289 340/356/289 333/349/289
f 330/350/290 337/357/290 336/353/290 329/346/290
f 333/349/291 340/356/291 337/357/291 330/350/291
f 331/351/292 338/358/292 335/359/292 328/352/292
f 332/347/293 339/354/293 338/358/293 331/351/293
